STARTFONT 2.1
FONT -sun-timmons-medium-r-normal--20-200-75-75-p-113-adobe-fontspecific
SIZE 20 75 75
FONTBOUNDINGBOX 24 23 -4 -4

STARTPROPERTIES 28
FOUNDRY "sun"
FAMILY_NAME "timmons"
WEIGHT_NAME "medium"
SLANT "r"
SETWIDTH_NAME "normal"
ADD_STYLE_NAME ""
PIXEL_SIZE 21
POINT_SIZE 200
RESOLUTION_X 75
RESOLUTION_Y 75
SPACING "p"
AVERAGE_WIDTH 113
CHARSET_REGISTRY "adobe"
CHARSET_ENCODING "fontspecific"
COPYRIGHT "© 1999 Sun Microsystems, Inc."
RAW_PIXELSIZE 1000
RAW_POINTSIZE 964
RAW_ASCENT 932
RAW_DESCENT 196
RAW_AVERAGE_WIDTH 5454
FACE_NAME "TimmonsNormalnsB5"
_XMBDFED_INFO "Edited with xmbdfed 2.4."
WEIGHT 10
X_HEIGHT -2
QUAD_WIDTH 11
DEFAULT_CHAR 4
FONT_DESCENT 4
FONT_ASCENT 19
ENDPROPERTIES

CHARS 214

STARTCHAR char32
ENCODING 32
SWIDTH 30 0
DWIDTH 7 0
BBX 0 0 0 0
BITMAP
ENDCHAR

STARTCHAR char33
ENCODING 33
SWIDTH 25 0
DWIDTH 6 0
BBX 2 15 2 0
BITMAP
C0
C0
C0
C0
C0
C0
80
80
80
80
80
00
00
C0
C0
ENDCHAR

STARTCHAR char34
ENCODING 34
SWIDTH 34 0
DWIDTH 8 0
BBX 8 6 0 9
BITMAP
66
77
73
13
62
8C
ENDCHAR

STARTCHAR char35
ENCODING 35
SWIDTH 3 0
DWIDTH 11 0
BBX 10 15 0 0
BITMAP
1880
1980
1980
1980
7FC0
1100
1100
3300
3300
FFC0
7FC0
2200
2200
2200
6600
ENDCHAR

STARTCHAR char36
ENCODING 36
SWIDTH 3 0
DWIDTH 11 0
BBX 9 19 1 -2
BITMAP
1800
1800
3E00
4B00
C900
C900
C900
E800
7800
3E00
0E00
0B00
8B00
8980
8B00
CB00
FE00
0800
0800
ENDCHAR

STARTCHAR char37
ENCODING 37
SWIDTH 25 0
DWIDTH 16 0
BBX 16 15 -1 0
BITMAP
3810
6410
C630
C620
C660
C64C
C6D2
C693
65B3
3933
0233
0233
0233
0412
041C
ENDCHAR

STARTCHAR char38
ENCODING 38
SWIDTH 25 0
DWIDTH 16 0
BBX 15 15 0 0
BITMAP
0780
0CC0
18C0
18C0
1D80
1F3C
0C18
3E10
6620
4720
C3C0
C1C0
E1E2
6374
3C38
ENDCHAR

STARTCHAR char39
ENCODING 39
SWIDTH 21 0
DWIDTH 5 0
BBX 4 6 0 9
BITMAP
30
60
C0
C0
F0
70
ENDCHAR

STARTCHAR char40
ENCODING 40
SWIDTH 30 0
DWIDTH 7 0
BBX 5 19 1 -4
BITMAP
08
10
20
20
40
40
C0
C0
C0
C0
C0
C0
C0
40
60
20
10
18
08
ENDCHAR

STARTCHAR char41
ENCODING 41
SWIDTH 30 0
DWIDTH 7 0
BBX 6 19 0 -4
BITMAP
40
20
10
18
18
08
0C
0C
0C
0C
0C
0C
0C
18
18
10
20
40
80
ENDCHAR

STARTCHAR char42
ENCODING 42
SWIDTH 38 0
DWIDTH 9 0
BBX 8 9 0 6
BITMAP
18
18
5B
76
18
6E
5B
18
08
ENDCHAR

STARTCHAR char43
ENCODING 43
SWIDTH 16 0
DWIDTH 14 0
BBX 13 12 0 0
BITMAP
0300
0300
0300
0300
0300
FFF8
0300
0300
0300
0300
0300
0300
ENDCHAR

STARTCHAR char44
ENCODING 44
SWIDTH 21 0
DWIDTH 5 0
BBX 4 6 1 -4
BITMAP
E0
F0
30
30
60
80
ENDCHAR

STARTCHAR char45
ENCODING 45
SWIDTH 25 0
DWIDTH 6 0
BBX 5 2 1 4
BITMAP
F8
F8
ENDCHAR

STARTCHAR char46
ENCODING 46
SWIDTH 21 0
DWIDTH 5 0
BBX 2 2 1 0
BITMAP
C0
C0
ENDCHAR

STARTCHAR char47
ENCODING 47
SWIDTH 34 0
DWIDTH 8 0
BBX 8 15 0 0
BITMAP
03
02
06
06
0C
0C
08
18
18
30
30
20
60
60
C0
ENDCHAR

STARTCHAR char48
ENCODING 48
SWIDTH 43 0
DWIDTH 10 0
BBX 9 15 0 0
BITMAP
1C00
3200
6300
4100
C180
C180
C180
C180
C180
C180
C180
6100
6300
2300
1C00
ENDCHAR

STARTCHAR char49
ENCODING 49
SWIDTH 43 0
DWIDTH 10 0
BBX 6 15 2 0
BITMAP
10
F0
30
30
30
30
30
30
30
30
30
30
30
30
FC
ENDCHAR

STARTCHAR char50
ENCODING 50
SWIDTH 43 0
DWIDTH 10 0
BBX 9 15 0 0
BITMAP
1C00
7E00
4700
8300
0300
0300
0300
0200
0400
0C00
0800
1000
2080
7F00
FF00
ENDCHAR

STARTCHAR char51
ENCODING 51
SWIDTH 43 0
DWIDTH 10 0
BBX 8 15 0 0
BITMAP
3C
7E
46
02
02
04
0C
1E
07
03
03
03
02
E4
78
ENDCHAR

STARTCHAR char52
ENCODING 52
SWIDTH 43 0
DWIDTH 10 0
BBX 9 15 0 0
BITMAP
0600
0600
0E00
0E00
1600
1600
2600
4600
4600
8600
FF80
0600
0600
0600
0600
ENDCHAR

STARTCHAR char53
ENCODING 53
SWIDTH 43 0
DWIDTH 10 0
BBX 8 15 0 0
BITMAP
1F
1F
20
20
30
7C
1E
07
03
03
03
03
02
C6
78
ENDCHAR

STARTCHAR char54
ENCODING 54
SWIDTH 43 0
DWIDTH 10 0
BBX 9 15 0 0
BITMAP
0700
0C00
1800
3000
3000
6000
7E00
E300
C180
C180
C180
C180
6180
7300
3E00
ENDCHAR

STARTCHAR char55
ENCODING 55
SWIDTH 43 0
DWIDTH 10 0
BBX 9 15 0 0
BITMAP
7F80
7F80
8100
8100
0300
0200
0200
0600
0400
0400
0400
0800
0800
0800
1800
ENDCHAR

STARTCHAR char56
ENCODING 56
SWIDTH 43 0
DWIDTH 10 0
BBX 8 15 1 0
BITMAP
3C
46
C3
C3
C3
66
7C
38
2E
46
C7
C3
C3
42
3E
ENDCHAR

STARTCHAR char57
ENCODING 57
SWIDTH 43 0
DWIDTH 10 0
BBX 9 16 0 -1
BITMAP
1E00
6300
4300
C180
C180
C180
C180
6180
7F80
0300
0300
0600
0600
0800
7000
8000
ENDCHAR

STARTCHAR char58
ENCODING 58
SWIDTH 25 0
DWIDTH 6 0
BBX 2 10 2 0
BITMAP
C0
C0
00
00
00
00
00
00
C0
C0
ENDCHAR

STARTCHAR char59
ENCODING 59
SWIDTH 25 0
DWIDTH 6 0
BBX 3 14 2 -4
BITMAP
C0
C0
00
00
00
00
00
00
C0
E0
60
60
40
80
ENDCHAR

STARTCHAR char60
ENCODING 60
SWIDTH 8 0
DWIDTH 12 0
BBX 11 11 0 0
BITMAP
0020
00E0
0380
0E00
3800
E000
7000
1C00
0700
01C0
0060
ENDCHAR

STARTCHAR char61
ENCODING 61
SWIDTH 16 0
DWIDTH 14 0
BBX 13 4 0 4
BITMAP
FFF8
0000
0000
FFF8
ENDCHAR

STARTCHAR char62
ENCODING 62
SWIDTH 8 0
DWIDTH 12 0
BBX 11 11 0 0
BITMAP
8000
E000
3800
0E00
03C0
0060
00E0
0700
1C00
7000
C000
ENDCHAR

STARTCHAR char63
ENCODING 63
SWIDTH 38 0
DWIDTH 9 0
BBX 7 15 1 0
BITMAP
38
4C
86
C6
46
0E
0C
08
10
10
10
00
00
30
30
ENDCHAR

STARTCHAR char64
ENCODING 64
SWIDTH 11 0
DWIDTH 23 0
BBX 15 15 3 0
BITMAP
07E0
1838
300C
6394
6676
CC66
D826
D826
D866
D844
4DC8
6770
300C
1818
07E0
ENDCHAR

STARTCHAR char65
ENCODING 65
SWIDTH 25 0
DWIDTH 16 0
BBX 16 15 -1 0
BITMAP
0080
0080
0180
01C0
02C0
02E0
0260
0470
0430
0FF0
1838
1018
101C
200C
F03F
ENDCHAR

STARTCHAR char66
ENCODING 66
SWIDTH 12 0
DWIDTH 13 0
BBX 12 15 0 0
BITMAP
FF00
30C0
3060
3060
3060
30E0
31C0
3F00
30E0
3070
3070
3070
3070
30E0
FF80
ENDCHAR

STARTCHAR char67
ENCODING 67
SWIDTH 20 0
DWIDTH 15 0
BBX 13 15 1 0
BITMAP
07D0
1870
3030
6010
6010
C000
C000
C000
C000
C000
E000
6008
7010
3820
0FC0
ENDCHAR

STARTCHAR char68
ENCODING 68
SWIDTH 25 0
DWIDTH 16 0
BBX 15 15 0 0
BITMAP
FFC0
3070
3018
301C
300C
3006
3006
3006
3006
3006
300E
300C
3018
3070
FFC0
ENDCHAR

STARTCHAR char69
ENCODING 69
SWIDTH 12 0
DWIDTH 13 0
BBX 13 15 0 0
BITMAP
7FF0
3030
3010
3010
3000
3040
3040
3FC0
3040
3040
3000
3008
3008
3010
FFF0
ENDCHAR

STARTCHAR char70
ENCODING 70
SWIDTH 12 0
DWIDTH 13 0
BBX 12 15 0 0
BITMAP
FFF0
3030
3010
3010
3000
3020
3060
3FE0
3020
3020
3000
3000
3000
3000
FE00
ENDCHAR

STARTCHAR char71
ENCODING 71
SWIDTH 29 0
DWIDTH 17 0
BBX 15 15 1 0
BITMAP
0FC8
1838
3018
6008
4008
C000
C000
C07C
C018
C018
E018
6018
3018
1838
0FE0
ENDCHAR

STARTCHAR char72
ENCODING 72
SWIDTH 25 0
DWIDTH 16 0
BBX 16 15 0 0
BITMAP
FC7F
381C
3018
3018
3018
3018
3018
3FF8
3018
3018
3018
3018
3018
3018
FC7E
ENDCHAR

STARTCHAR char73
ENCODING 73
SWIDTH 30 0
DWIDTH 7 0
BBX 7 15 0 0
BITMAP
FE
38
30
30
30
30
30
30
30
30
30
30
30
30
FE
ENDCHAR

STARTCHAR char74
ENCODING 74
SWIDTH 34 0
DWIDTH 8 0
BBX 8 15 0 0
BITMAP
3F
0C
0C
0C
0C
0C
0C
0C
0C
0C
0C
0C
0C
E8
78
ENDCHAR

STARTCHAR char75
ENCODING 75
SWIDTH 20 0
DWIDTH 15 0
BBX 15 15 0 0
BITMAP
FCFC
3860
3040
30C0
3180
3300
3600
3E00
3700
3380
31C0
30E0
30F0
3078
FCFE
ENDCHAR

STARTCHAR char76
ENCODING 76
SWIDTH 12 0
DWIDTH 13 0
BBX 13 15 0 0
BITMAP
FC00
3800
3000
3000
3000
3000
3000
3000
3000
3000
3000
3010
3010
3830
FFE0
ENDCHAR

STARTCHAR char77
ENCODING 77
SWIDTH 42 0
DWIDTH 20 0
BBX 18 15 0 0
BITMAP
F003C0
780700
780700
7C0700
6C0B00
6E0B00
661300
661300
632300
632300
63C300
61C300
61C300
608300
F887C0
ENDCHAR

STARTCHAR char78
ENCODING 78
SWIDTH 25 0
DWIDTH 16 0
BBX 15 15 0 0
BITMAP
F03E
7808
380C
3C0C
360C
330C
338C
31CC
30CC
3068
3038
3038
3018
3008
F808
ENDCHAR

STARTCHAR char79
ENCODING 79
SWIDTH 25 0
DWIDTH 16 0
BBX 13 15 1 0
BITMAP
0F80
10C0
2060
6030
4038
C018
C018
C018
C018
C018
C018
6030
2030
3060
0F80
ENDCHAR

STARTCHAR char80
ENCODING 80
SWIDTH 8 0
DWIDTH 12 0
BBX 11 15 0 0
BITMAP
FF80
31C0
30E0
3060
3060
3060
30C0
3F80
3000
3000
3000
3000
3000
3800
FC00
ENDCHAR

STARTCHAR char81
ENCODING 81
SWIDTH 25 0
DWIDTH 16 0
BBX 13 19 1 -4
BITMAP
0F80
10C0
2060
6030
4030
C018
C018
C018
C018
C018
C018
6030
2030
3060
0F80
0780
0380
00E0
0038
ENDCHAR

STARTCHAR char82
ENCODING 82
SWIDTH 16 0
DWIDTH 14 0
BBX 14 15 0 0
BITMAP
FF80
31C0
30E0
3060
3060
3060
30C0
3F00
3380
3180
31C0
30E0
3060
3030
FC3C
ENDCHAR

STARTCHAR char83
ENCODING 83
SWIDTH 8 0
DWIDTH 12 0
BBX 9 15 1 0
BITMAP
3F00
6300
C100
C100
E100
F000
7C00
1E00
0F00
0380
8180
8180
8180
C300
BE00
ENDCHAR

STARTCHAR char84
ENCODING 84
SWIDTH 16 0
DWIDTH 14 0
BBX 13 15 0 0
BITMAP
FFF8
C618
8608
8608
0600
0600
0600
0600
0600
0600
0600
0600
0600
0600
1FC0
ENDCHAR

STARTCHAR char85
ENCODING 85
SWIDTH 25 0
DWIDTH 16 0
BBX 15 15 0 0
BITMAP
FC3E
700C
300C
300C
300C
300C
300C
300C
300C
300C
300C
3008
3818
1830
07E0
ENDCHAR

STARTCHAR char86
ENCODING 86
SWIDTH 20 0
DWIDTH 15 0
BBX 15 15 0 0
BITMAP
FC3E
700C
3008
1810
1810
1830
0C20
0C20
0640
0640
0780
0380
0300
0300
0100
ENDCHAR

STARTCHAR char87
ENCODING 87
SWIDTH 3 0
DWIDTH 21 0
BBX 21 15 -1 0
BITMAP
FDF8F8
307060
387060
183040
183840
1C7840
0C5880
0C5C80
068C80
068D00
078F00
030700
030600
010200
010200
ENDCHAR

STARTCHAR char88
ENCODING 88
SWIDTH 20 0
DWIDTH 15 0
BBX 15 15 0 0
BITMAP
FE3C
3810
1820
0C40
0E40
0680
0700
0300
0380
05C0
0CC0
08E0
1060
3070
70FC
ENDCHAR

STARTCHAR char89
ENCODING 89
SWIDTH 20 0
DWIDTH 15 0
BBX 15 15 0 0
BITMAP
FC3E
3018
3810
1830
0C20
0E40
06C0
0780
0300
0300
0300
0300
0300
0300
0FE0
ENDCHAR

STARTCHAR char90
ENCODING 90
SWIDTH 12 0
DWIDTH 13 0
BBX 13 15 0 0
BITMAP
7FF0
6060
40E0
41C0
0180
0380
0700
0600
0E00
1C00
1800
3808
7008
6010
FFF0
ENDCHAR

STARTCHAR char91
ENCODING 91
SWIDTH 21 0
DWIDTH 5 0
BBX 4 18 1 -3
BITMAP
F0
C0
C0
C0
C0
C0
C0
C0
C0
C0
C0
C0
C0
C0
C0
C0
C0
F0
ENDCHAR

STARTCHAR char92
ENCODING 92
SWIDTH 25 0
DWIDTH 6 0
BBX 6 15 0 0
BITMAP
80
C0
40
40
60
20
20
30
10
10
18
18
08
0C
0C
ENDCHAR

STARTCHAR char93
ENCODING 93
SWIDTH 21 0
DWIDTH 5 0
BBX 4 18 0 -3
BITMAP
F0
30
30
30
30
30
30
30
30
30
30
30
30
30
30
30
30
F0
ENDCHAR

STARTCHAR char94
ENCODING 94
SWIDTH 0 0
DWIDTH 0 0
BBX 6 2 -3 16
BITMAP
78
84
ENDCHAR

STARTCHAR char95
ENCODING 95
SWIDTH 8 0
DWIDTH 12 0
BBX 12 1 0 -3
BITMAP
FFF0
ENDCHAR

STARTCHAR char96
ENCODING 96
SWIDTH 0 0
DWIDTH 0 0
BBX 4 4 -3 11
BITMAP
60
60
20
10
ENDCHAR

STARTCHAR char97
ENCODING 97
SWIDTH 38 0
DWIDTH 9 0
BBX 10 10 0 0
BITMAP
3E00
6300
6300
0300
1F00
2300
4300
C300
E740
7B80
ENDCHAR

STARTCHAR char98
ENCODING 98
SWIDTH 3 0
DWIDTH 11 0
BBX 10 15 0 0
BITMAP
2000
E000
6000
6000
6000
6F00
7F80
61C0
60C0
60C0
60C0
60C0
6080
6180
1E00
ENDCHAR

STARTCHAR char99
ENCODING 99
SWIDTH 38 0
DWIDTH 9 0
BBX 9 10 0 0
BITMAP
3E00
6300
4100
C000
C000
C000
E080
E100
7E00
3C00
ENDCHAR

STARTCHAR char100
ENCODING 100
SWIDTH 3 0
DWIDTH 11 0
BBX 11 14 0 0
BITMAP
0380
0180
0180
0180
3F80
6180
E180
C180
C180
C180
C180
E180
7380
3D80
ENDCHAR

STARTCHAR char101
ENCODING 101
SWIDTH 43 0
DWIDTH 10 0
BBX 9 10 0 0
BITMAP
3E00
6300
C100
FF80
C000
C000
C080
6080
7F00
1E00
ENDCHAR

STARTCHAR char102
ENCODING 102
SWIDTH 25 0
DWIDTH 6 0
BBX 9 16 0 0
BITMAP
0F00
1B80
1180
3000
3000
3000
7C00
3000
3000
3000
3000
3000
3000
3000
3000
F800
ENDCHAR

STARTCHAR char103
ENCODING 103
SWIDTH 43 0
DWIDTH 10 0
BBX 10 13 0 -3
BITMAP
3D00
2300
6300
6300
6300
1E00
2000
6000
7F00
3FC0
40C0
C180
3E00
ENDCHAR

STARTCHAR char104
ENCODING 104
SWIDTH 8 0
DWIDTH 12 0
BBX 11 15 0 0
BITMAP
1000
F000
3000
3000
3000
3780
3FC0
30C0
30C0
30C0
30C0
30C0
30C0
30C0
F3E0
ENDCHAR

STARTCHAR char105
ENCODING 105
SWIDTH 21 0
DWIDTH 5 0
BBX 5 15 0 0
BITMAP
30
30
00
00
00
30
30
30
30
30
30
30
30
30
F8
ENDCHAR

STARTCHAR char106
ENCODING 106
SWIDTH 21 0
DWIDTH 5 0
BBX 5 18 -2 -3
BITMAP
18
18
00
00
00
18
18
18
18
18
18
18
18
18
18
18
10
F0
ENDCHAR

STARTCHAR char107
ENCODING 107
SWIDTH 43 0
DWIDTH 10 0
BBX 11 15 0 0
BITMAP
2000
E000
6000
6000
6000
6780
6400
6400
6800
7800
6C00
6400
6600
6300
FFE0
ENDCHAR

STARTCHAR char108
ENCODING 108
SWIDTH 21 0
DWIDTH 5 0
BBX 5 15 0 0
BITMAP
10
F0
30
30
30
30
30
30
30
30
30
30
30
30
F8
ENDCHAR

STARTCHAR char109
ENCODING 109
SWIDTH 33 0
DWIDTH 18 0
BBX 16 10 1 0
BITMAP
DE78
E38C
C30C
C30C
C30C
C30C
C30C
C30C
C30C
E79F
ENDCHAR

STARTCHAR char110
ENCODING 110
SWIDTH 8 0
DWIDTH 12 0
BBX 11 10 0 0
BITMAP
6F80
79C0
60C0
60C0
60C0
60C0
60C0
60C0
60C0
FBE0
ENDCHAR

STARTCHAR char111
ENCODING 111
SWIDTH 3 0
DWIDTH 11 0
BBX 10 10 0 0
BITMAP
3F00
6180
E0C0
C0C0
C0C0
C0C0
C0C0
6080
7180
1F00
ENDCHAR

STARTCHAR char112
ENCODING 112
SWIDTH 3 0
DWIDTH 11 0
BBX 10 14 0 -4
BITMAP
EF00
7380
61C0
60C0
60C0
60C0
60C0
6080
7180
6F00
6000
6000
F800
8800
ENDCHAR

STARTCHAR char113
ENCODING 113
SWIDTH 3 0
DWIDTH 11 0
BBX 11 13 0 -3
BITMAP
3F80
6180
4180
C180
C180
C180
C180
E180
7380
3D80
0180
0180
01C0
ENDCHAR

STARTCHAR char114
ENCODING 114
SWIDTH 30 0
DWIDTH 7 0
BBX 7 10 0 0
BITMAP
3E
32
30
30
30
30
30
30
30
F8
ENDCHAR

STARTCHAR char115
ENCODING 115
SWIDTH 34 0
DWIDTH 8 0
BBX 8 10 0 0
BITMAP
7E
C2
C2
F0
7C
1E
07
83
C3
FC
ENDCHAR

STARTCHAR char116
ENCODING 116
SWIDTH 25 0
DWIDTH 6 0
BBX 6 13 0 0
BITMAP
10
10
20
FC
30
30
30
30
30
30
30
34
38
ENDCHAR

STARTCHAR char117
ENCODING 117
SWIDTH 8 0
DWIDTH 12 0
BBX 11 10 0 0
BITMAP
E380
6180
6180
6180
6180
6180
6180
6180
77C0
3D80
ENDCHAR

STARTCHAR char118
ENCODING 118
SWIDTH 43 0
DWIDTH 10 0
BBX 10 10 -1 0
BITMAP
78C0
7080
3080
3100
1900
1900
0E00
0E00
0400
0400
ENDCHAR

STARTCHAR char119
ENCODING 119
SWIDTH 20 0
DWIDTH 15 0
BBX 14 10 0 0
BITMAP
E70C
6108
2108
3390
3390
1290
1CE0
18E0
0840
0840
ENDCHAR

STARTCHAR char120
ENCODING 120
SWIDTH 43 0
DWIDTH 10 0
BBX 10 10 0 0
BITMAP
71C0
3100
1A00
1C00
0C00
0E00
1600
3300
2380
E3C0
ENDCHAR

STARTCHAR char121
ENCODING 121
SWIDTH 43 0
DWIDTH 10 0
BBX 10 13 0 -3
BITMAP
F3C0
6180
2100
3100
1200
1200
1C00
0C00
0C00
0800
0800
7000
6000
ENDCHAR

STARTCHAR char122
ENCODING 122
SWIDTH 38 0
DWIDTH 9 0
BBX 9 10 0 0
BITMAP
7F80
4300
4600
0600
0C00
1800
3000
3080
6080
FF80
ENDCHAR

STARTCHAR char123
ENCODING 123
SWIDTH 30 0
DWIDTH 7 0
BBX 5 19 1 -4
BITMAP
38
70
60
60
20
20
20
60
40
80
60
60
60
60
60
60
60
70
38
ENDCHAR

STARTCHAR char124
ENCODING 124
SWIDTH 25 0
DWIDTH 6 0
BBX 2 15 2 0
BITMAP
C0
C0
C0
C0
C0
C0
C0
C0
C0
C0
C0
C0
C0
C0
C0
ENDCHAR

STARTCHAR char125
ENCODING 125
SWIDTH 30 0
DWIDTH 7 0
BBX 5 19 1 -4
BITMAP
C0
20
20
20
30
30
30
30
10
08
10
30
30
30
30
30
30
70
E0
ENDCHAR

STARTCHAR char126
ENCODING 126
SWIDTH 0 0
DWIDTH 0 0
BBX 8 3 -4 16
BITMAP
01
3E
4C
ENDCHAR

STARTCHAR char128
ENCODING 128
SWIDTH 43 0
DWIDTH 10 0
BBX 10 14 0 0
BITMAP
0F80
10C0
3040
2040
6000
6000
FF80
FF00
6000
6000
6000
2040
30C0
0F00
ENDCHAR

STARTCHAR char130
ENCODING 130
SWIDTH 21 0
DWIDTH 5 0
BBX 4 6 1 -4
BITMAP
E0
F0
30
30
60
80
ENDCHAR

STARTCHAR char131
ENCODING 131
SWIDTH 0 0
DWIDTH 0 0
BBX 6 2 -3 16
BITMAP
78
84
ENDCHAR

STARTCHAR char132
ENCODING 132
SWIDTH 34 0
DWIDTH 8 0
BBX 8 5 0 -3
BITMAP
66
77
33
33
E2
ENDCHAR

STARTCHAR char133
ENCODING 133
SWIDTH 7 0
DWIDTH 22 0
BBX 16 2 2 0
BITMAP
C183
C183
ENDCHAR

STARTCHAR char134
ENCODING 134
SWIDTH 38 0
DWIDTH 9 0
BBX 7 18 1 -3
BITMAP
10
38
30
10
FE
D6
10
38
30
10
10
10
10
10
10
10
10
10
ENDCHAR

STARTCHAR char135
ENCODING 135
SWIDTH 3 0
DWIDTH 21 0
BBX 0 0 0 0
BITMAP
ENDCHAR

STARTCHAR char136
ENCODING 136
SWIDTH 0 0
DWIDTH 0 0
BBX 6 4 -3 11
BITMAP
30
78
CC
84
ENDCHAR

STARTCHAR char137
ENCODING 137
SWIDTH 3 0
DWIDTH 21 0
BBX 0 0 0 0
BITMAP
ENDCHAR

STARTCHAR char138
ENCODING 138
SWIDTH 3 0
DWIDTH 21 0
BBX 0 0 0 0
BITMAP
ENDCHAR

STARTCHAR char139
ENCODING 139
SWIDTH 30 0
DWIDTH 7 0
BBX 3 7 2 2
BITMAP
20
60
C0
80
E0
60
20
ENDCHAR

STARTCHAR char140
ENCODING 140
SWIDTH 3 0
DWIDTH 21 0
BBX 19 15 1 0
BITMAP
0FFF80
11C080
20C040
60C040
40C080
C0C080
C0C100
C0FF00
C0C080
C0C080
C0C000
40C020
60C020
30C040
1FFFC0
ENDCHAR

STARTCHAR char141
ENCODING 141
SWIDTH 3 0
DWIDTH 21 0
BBX 0 0 0 0
BITMAP
ENDCHAR

STARTCHAR char143
ENCODING 143
SWIDTH 3 0
DWIDTH 21 0
BBX 0 0 0 0
BITMAP
ENDCHAR

STARTCHAR char145
ENCODING 145
SWIDTH 21 0
DWIDTH 5 0
BBX 4 6 0 9
BITMAP
30
60
C0
C0
F0
70
ENDCHAR

STARTCHAR char146
ENCODING 146
SWIDTH 21 0
DWIDTH 5 0
BBX 4 6 1 9
BITMAP
E0
F0
30
30
20
C0
ENDCHAR

STARTCHAR char147
ENCODING 147
SWIDTH 34 0
DWIDTH 8 0
BBX 8 6 0 9
BITMAP
3B
44
CC
CC
EF
67
ENDCHAR

STARTCHAR char148
ENCODING 148
SWIDTH 34 0
DWIDTH 8 0
BBX 8 6 0 9
BITMAP
66
77
73
13
62
8C
ENDCHAR

STARTCHAR char149
ENCODING 149
SWIDTH 30 0
DWIDTH 7 0
BBX 5 5 1 5
BITMAP
70
F8
F8
F8
70
ENDCHAR

STARTCHAR char150
ENCODING 150
SWIDTH 43 0
DWIDTH 10 0
BBX 9 2 0 4
BITMAP
FF80
FF80
ENDCHAR

STARTCHAR char151
ENCODING 151
SWIDTH 16 0
DWIDTH 14 0
BBX 13 1 0 6
BITMAP
FFF8
ENDCHAR

STARTCHAR char152
ENCODING 152
SWIDTH 0 0
DWIDTH 0 0
BBX 8 3 -4 12
BITMAP
39
7E
8C
ENDCHAR

STARTCHAR char153
ENCODING 153
SWIDTH 33 0
DWIDTH 18 0
BBX 17 8 0 6
BITMAP
FF8380
B28300
30C500
30C500
30EB00
30AB00
309300
799780
ENDCHAR

STARTCHAR char154
ENCODING 154
SWIDTH 3 0
DWIDTH 21 0
BBX 0 0 0 0
BITMAP
ENDCHAR

STARTCHAR char155
ENCODING 155
SWIDTH 30 0
DWIDTH 7 0
BBX 3 7 2 2
BITMAP
80
C0
60
20
E0
80
80
ENDCHAR

STARTCHAR char156
ENCODING 156
SWIDTH 33 0
DWIDTH 18 0
BBX 17 10 0 0
BITMAP
3E3E00
61C300
61C300
C0FF00
C0C000
C0C000
C0C080
61E100
61BF00
1E1C00
ENDCHAR

STARTCHAR char157
ENCODING 157
SWIDTH 3 0
DWIDTH 21 0
BBX 0 0 0 0
BITMAP
ENDCHAR

STARTCHAR char159
ENCODING 159
SWIDTH 20 0
DWIDTH 15 0
BBX 15 19 0 0
BITMAP
0800
18E0
18E0
0000
FC3E
3018
3010
1830
1C20
0E40
06C0
0780
0300
0300
0300
0300
0300
0300
0FE0
ENDCHAR

STARTCHAR char160
ENCODING 160
SWIDTH 43 0
DWIDTH 10 0
BBX 0 0 0 0
BITMAP
ENDCHAR

STARTCHAR char161
ENCODING 161
SWIDTH 25 0
DWIDTH 6 0
BBX 3 15 1 0
BITMAP
C0
C0
00
00
40
40
40
40
C0
C0
C0
C0
C0
C0
C0
ENDCHAR

STARTCHAR char162
ENCODING 162
SWIDTH 38 0
DWIDTH 9 0
BBX 9 15 0 -2
BITMAP
0C00
0800
0800
3F00
6F00
4D00
CC00
CC00
CC00
EC80
EC80
7F00
3E00
0C00
0C00
ENDCHAR

STARTCHAR char163
ENCODING 163
SWIDTH 3 0
DWIDTH 11 0
BBX 11 15 -1 0
BITMAP
0780
0CC0
08C0
0800
0800
0800
0C00
3F80
0C00
0C00
0C00
0C00
F820
CFE0
F7C0
ENDCHAR

STARTCHAR char164
ENCODING 164
SWIDTH 0 0
DWIDTH 0 0
BBX 5 3 -2 16
BITMAP
38
60
40
ENDCHAR

STARTCHAR char165
ENCODING 165
SWIDTH 0 0
DWIDTH 0 0
BBX 7 3 -3 16
BITMAP
86
78
30
ENDCHAR

STARTCHAR char166
ENCODING 166
SWIDTH 3 0
DWIDTH 21 0
BBX 0 0 0 0
BITMAP
ENDCHAR

STARTCHAR char167
ENCODING 167
SWIDTH 34 0
DWIDTH 8 0
BBX 7 18 0 -3
BITMAP
1C
26
66
60
30
38
5C
46
82
C2
E2
72
3C
1C
0E
66
66
3C
ENDCHAR

STARTCHAR char168
ENCODING 168
SWIDTH 0 0
DWIDTH 0 0
BBX 6 2 -3 12
BITMAP
CC
CC
ENDCHAR

STARTCHAR char169
ENCODING 169
SWIDTH 25 0
DWIDTH 16 0
BBX 15 14 0 0
BITMAP
07C0
0820
3010
2008
4FC4
C826
D806
D806
D806
4C04
4C44
2388
1030
0FC0
ENDCHAR

STARTCHAR char170
ENCODING 170
SWIDTH 0 0
DWIDTH 0 0
BBX 6 3 -3 16
BITMAP
40
CC
CC
ENDCHAR

STARTCHAR char171
ENCODING 171
SWIDTH 43 0
DWIDTH 10 0
BBX 9 9 0 1
BITMAP
1080
1100
2300
4600
C600
6200
2300
1100
1080
ENDCHAR

STARTCHAR char172
ENCODING 172
SWIDTH 20 0
DWIDTH 15 0
BBX 14 6 0 0
BITMAP
FFFC
000C
000C
000C
000C
000C
ENDCHAR

STARTCHAR char173
ENCODING 173
SWIDTH 3 0
DWIDTH 21 0
BBX 0 0 0 0
BITMAP
ENDCHAR

STARTCHAR char174
ENCODING 174
SWIDTH 25 0
DWIDTH 16 0
BBX 15 14 0 0
BITMAP
0780
0860
1010
2FC8
4664
C666
C6C6
C786
C786
C6C4
4E64
2008
1010
0FE0
ENDCHAR

STARTCHAR char175
ENCODING 175
SWIDTH 3 0
DWIDTH 21 0
BBX 0 0 0 0
BITMAP
ENDCHAR

STARTCHAR char176
ENCODING 176
SWIDTH 34 0
DWIDTH 8 0
BBX 7 6 0 8
BITMAP
38
44
C6
C6
46
3C
ENDCHAR

STARTCHAR char177
ENCODING 177
SWIDTH 3 0
DWIDTH 11 0
BBX 10 13 0 0
BITMAP
0C00
0C00
0C00
0C00
0C00
FFC0
0C00
0C00
0C00
0C00
0C00
0000
FFC0
ENDCHAR

STARTCHAR char178
ENCODING 178
SWIDTH 3 0
DWIDTH 21 0
BBX 0 0 0 0
BITMAP
ENDCHAR

STARTCHAR char179
ENCODING 179
SWIDTH 3 0
DWIDTH 21 0
BBX 0 0 0 0
BITMAP
ENDCHAR

STARTCHAR char180
ENCODING 180
SWIDTH 0 0
DWIDTH 0 0
BBX 4 4 -1 11
BITMAP
60
60
40
80
ENDCHAR

STARTCHAR char181
ENCODING 181
SWIDTH 3 0
DWIDTH 21 0
BBX 0 0 0 0
BITMAP
ENDCHAR

STARTCHAR char182
ENCODING 182
SWIDTH 20 0
DWIDTH 15 0
BBX 9 18 2 -3
BITMAP
3F80
7980
F980
F980
F980
F980
F980
7980
1980
1980
1980
1980
1980
1980
1980
1980
1980
1980
ENDCHAR

STARTCHAR char183
ENCODING 183
SWIDTH 17 0
DWIDTH 4 0
BBX 2 3 1 5
BITMAP
C0
C0
C0
ENDCHAR

STARTCHAR char184
ENCODING 184
SWIDTH 0 0
DWIDTH 0 0
BBX 4 4 -2 -4
BITMAP
20
20
70
E0
ENDCHAR

STARTCHAR char186
ENCODING 186
SWIDTH 0 0
DWIDTH 0 0
BBX 8 3 -4 16
BITMAP
01
3E
4C
ENDCHAR

STARTCHAR char187
ENCODING 187
SWIDTH 43 0
DWIDTH 10 0
BBX 9 9 0 1
BITMAP
8400
4200
2300
3100
1980
3180
2300
4200
4400
ENDCHAR

STARTCHAR char188
ENCODING 188
SWIDTH 3 0
DWIDTH 21 0
BBX 0 0 0 0
BITMAP
ENDCHAR

STARTCHAR char189
ENCODING 189
SWIDTH 3 0
DWIDTH 21 0
BBX 0 0 0 0
BITMAP
ENDCHAR

STARTCHAR char191
ENCODING 191
SWIDTH 34 0
DWIDTH 8 0
BBX 7 15 0 0
BITMAP
18
18
00
00
08
08
10
10
20
60
C0
C6
C6
E6
7C
ENDCHAR

STARTCHAR char192
ENCODING 192
SWIDTH 25 0
DWIDTH 16 0
BBX 16 18 -1 0
BITMAP
0380
0080
0000
0080
0080
0180
01C0
02C0
02E0
0260
0470
0430
0FF0
1838
1018
101C
200C
F03F
ENDCHAR

STARTCHAR char193
ENCODING 193
SWIDTH 25 0
DWIDTH 16 0
BBX 16 19 -1 0
BITMAP
00E0
0180
0100
0000
0080
0080
0180
01C0
02C0
02E0
0260
0470
0430
0FF0
1838
1018
101C
200C
F03F
ENDCHAR

STARTCHAR char194
ENCODING 194
SWIDTH 25 0
DWIDTH 16 0
BBX 16 18 -1 0
BITMAP
03C0
0C20
0000
0080
0080
0180
01C0
02C0
02E0
0260
0470
0430
0FF0
1838
1018
101C
200C
F03F
ENDCHAR

STARTCHAR char195
ENCODING 195
SWIDTH 25 0
DWIDTH 16 0
BBX 16 19 -1 0
BITMAP
0010
07A0
08C0
0000
0080
0080
0180
01C0
02C0
02E0
0260
0470
0430
0FF0
1838
1018
101C
200C
F03F
ENDCHAR

STARTCHAR char196
ENCODING 196
SWIDTH 25 0
DWIDTH 16 0
BBX 15 18 0 0
BITMAP
0C60
0C60
0000
0100
0100
0380
0380
0380
04C0
04C0
0860
0860
1FF0
1030
1030
2018
6018
F07E
ENDCHAR

STARTCHAR char197
ENCODING 197
SWIDTH 25 0
DWIDTH 16 0
BBX 16 19 -1 0
BITMAP
01C0
0360
0360
01C0
0080
0080
01C0
01C0
02C0
02E0
0660
0470
0C70
0FF8
1818
1018
301C
200C
F01F
ENDCHAR

STARTCHAR char198
ENCODING 198
SWIDTH 42 0
DWIDTH 20 0
BBX 20 15 -1 0
BITMAP
01FFE0
00E060
00E020
016020
016040
026040
0270C0
047FC0
07E040
086040
086000
106010
106010
207020
F1FFE0
ENDCHAR

STARTCHAR char199
ENCODING 199
SWIDTH 20 0
DWIDTH 15 0
BBX 13 19 1 -4
BITMAP
0FD0
1870
3010
6010
6010
C000
C000
C000
C000
C000
E000
6008
7010
3820
1FC0
0400
0400
0600
0E00
ENDCHAR

STARTCHAR char200
ENCODING 200
SWIDTH 12 0
DWIDTH 13 0
BBX 13 18 0 0
BITMAP
0E00
0200
0000
FFF0
3830
3010
3010
3000
3040
3040
3FC0
3040
3040
3000
3008
3008
3010
FFF0
ENDCHAR

STARTCHAR char201
ENCODING 201
SWIDTH 12 0
DWIDTH 13 0
BBX 13 19 0 0
BITMAP
0380
0600
0400
0000
FFF0
3830
3010
3010
3000
3040
3040
3FC0
3040
3040
3000
3008
3008
3010
FFF0
ENDCHAR

STARTCHAR char202
ENCODING 202
SWIDTH 12 0
DWIDTH 13 0
BBX 13 18 0 0
BITMAP
0F00
1080
0000
FFF0
3830
3010
3010
3000
3040
3040
3FC0
3040
3040
3000
3008
3008
3010
FFF0
ENDCHAR

STARTCHAR char203
ENCODING 203
SWIDTH 12 0
DWIDTH 13 0
BBX 13 19 0 0
BITMAP
1000
18C0
18C0
0000
FFF0
3830
3010
3010
3000
3040
3040
3FC0
3020
3020
3000
3008
3008
3010
FFF0
ENDCHAR

STARTCHAR char204
ENCODING 204
SWIDTH 30 0
DWIDTH 7 0
BBX 7 18 0 0
BITMAP
30
18
00
FE
38
30
30
30
30
30
30
30
30
30
30
30
30
FE
ENDCHAR

STARTCHAR char205
ENCODING 205
SWIDTH 30 0
DWIDTH 7 0
BBX 7 19 0 0
BITMAP
1C
38
20
00
FE
38
30
30
30
30
30
30
30
30
30
30
30
30
FE
ENDCHAR

STARTCHAR char206
ENCODING 206
SWIDTH 30 0
DWIDTH 7 0
BBX 7 18 0 0
BITMAP
78
84
00
FE
38
30
30
30
30
30
30
30
30
30
30
30
30
FE
ENDCHAR

STARTCHAR char207
ENCODING 207
SWIDTH 30 0
DWIDTH 7 0
BBX 7 19 0 0
BITMAP
40
C6
C6
00
FE
38
30
30
30
30
30
30
30
30
30
30
30
30
7E
ENDCHAR

STARTCHAR char208
ENCODING 208
SWIDTH 3 0
DWIDTH 21 0
BBX 0 0 0 0
BITMAP
ENDCHAR

STARTCHAR char209
ENCODING 209
SWIDTH 25 0
DWIDTH 16 0
BBX 15 19 0 0
BITMAP
0020
0720
09C0
0000
F03E
7808
380C
3C0C
360C
330C
338C
31CC
30CC
3068
3038
3038
3018
3008
F808
ENDCHAR

STARTCHAR char210
ENCODING 210
SWIDTH 25 0
DWIDTH 16 0
BBX 13 18 1 0
BITMAP
0600
0200
0000
0F80
10C0
2060
6030
4038
C018
C018
C018
C018
C018
C018
6030
2030
3060
0F80
ENDCHAR

STARTCHAR char211
ENCODING 211
SWIDTH 25 0
DWIDTH 16 0
BBX 13 19 1 0
BITMAP
0380
0600
0400
0000
0F80
10C0
2060
6030
4038
C018
C018
C018
C018
C018
C018
6030
2030
3060
0F80
ENDCHAR

STARTCHAR char212
ENCODING 212
SWIDTH 25 0
DWIDTH 16 0
BBX 13 18 1 0
BITMAP
0F00
1080
0000
0F80
10C0
2060
6030
4038
C018
C018
C018
C018
C018
C018
6030
2030
3060
0F80
ENDCHAR

STARTCHAR char213
ENCODING 213
SWIDTH 25 0
DWIDTH 16 0
BBX 13 19 1 0
BITMAP
0040
1E80
1300
0000
0F80
10C0
2060
6030
4030
C018
C018
C018
C018
C018
C018
6030
2030
3060
0F80
ENDCHAR

STARTCHAR char214
ENCODING 214
SWIDTH 25 0
DWIDTH 16 0
BBX 13 19 1 0
BITMAP
0800
18C0
18C0
0000
0F80
10C0
2020
6030
4018
C018
C018
C018
C018
C018
C018
6010
2030
3060
0F80
ENDCHAR

STARTCHAR char215
ENCODING 215
SWIDTH 3 0
DWIDTH 21 0
BBX 0 0 0 0
BITMAP
ENDCHAR

STARTCHAR char216
ENCODING 216
SWIDTH 25 0
DWIDTH 16 0
BBX 13 15 1 0
BITMAP
0F90
10F0
2060
6070
40B0
C098
C118
C218
C418
C818
D018
7030
2030
7060
8F80
ENDCHAR

STARTCHAR char217
ENCODING 217
SWIDTH 25 0
DWIDTH 16 0
BBX 15 18 0 0
BITMAP
0300
0080
0000
FC3E
7008
3008
3008
3008
3008
3008
3008
3008
3008
3008
3008
3810
1830
07E0
ENDCHAR

STARTCHAR char218
ENCODING 218
SWIDTH 25 0
DWIDTH 16 0
BBX 15 19 0 0
BITMAP
01C0
0380
0200
0000
FC3E
7008
3008
3008
3008
3008
3008
3008
3008
3008
3008
3008
3810
1830
07E0
ENDCHAR

STARTCHAR char219
ENCODING 219
SWIDTH 25 0
DWIDTH 16 0
BBX 15 18 0 0
BITMAP
0780
0840
0000
FC3E
7008
3008
3008
3008
3008
3008
3008
3008
3008
3008
3008
3810
1830
07E0
ENDCHAR

STARTCHAR char220
ENCODING 220
SWIDTH 25 0
DWIDTH 16 0
BBX 15 19 0 0
BITMAP
0200
0660
0660
0000
FC1E
300C
300C
300C
300C
300C
300C
300C
300C
300C
300C
300C
1818
1C30
0FE0
ENDCHAR

STARTCHAR char221
ENCODING 221
SWIDTH 3 0
DWIDTH 21 0
BBX 0 0 0 0
BITMAP
ENDCHAR

STARTCHAR char222
ENCODING 222
SWIDTH 3 0
DWIDTH 21 0
BBX 0 0 0 0
BITMAP
ENDCHAR

STARTCHAR char223
ENCODING 223
SWIDTH 3 0
DWIDTH 11 0
BBX 10 15 0 0
BITMAP
1E00
3100
6180
6180
6180
6100
6600
6380
6180
60C0
60C0
60C0
64C0
6D80
FF00
ENDCHAR

STARTCHAR char224
ENCODING 224
SWIDTH 38 0
DWIDTH 9 0
BBX 10 15 0 0
BITMAP
3000
1000
0800
0800
0000
3E00
6300
6300
0300
1F00
2300
4300
C300
E740
7B80
ENDCHAR

STARTCHAR char225
ENCODING 225
SWIDTH 38 0
DWIDTH 9 0
BBX 10 15 0 0
BITMAP
0600
0C00
0800
1000
0000
3E00
6300
6300
0300
1F00
2300
4300
C300
E740
7B80
ENDCHAR

STARTCHAR char226
ENCODING 226
SWIDTH 38 0
DWIDTH 9 0
BBX 10 15 0 0
BITMAP
1C00
3C00
6200
4100
0000
3E00
6300
6300
0300
1F00
2300
4300
C300
E740
7B80
ENDCHAR

STARTCHAR char227
ENCODING 227
SWIDTH 38 0
DWIDTH 9 0
BBX 10 15 0 0
BITMAP
3900
7E00
8E00
0000
0000
3E00
6300
6300
0300
1F00
2300
4300
C300
E740
7B80
ENDCHAR

STARTCHAR char228
ENCODING 228
SWIDTH 38 0
DWIDTH 9 0
BBX 10 14 0 0
BITMAP
7300
6300
0000
0000
3E00
6300
6300
0300
1F00
2300
4300
C300
E740
7B80
ENDCHAR

STARTCHAR char229
ENCODING 229
SWIDTH 38 0
DWIDTH 9 0
BBX 10 15 0 0
BITMAP
1C00
3200
3600
1C00
0000
3E00
6300
6300
0300
1F00
3300
4300
C300
EF40
7380
ENDCHAR

STARTCHAR char230
ENCODING 230
SWIDTH 20 0
DWIDTH 15 0
BBX 14 10 0 0
BITMAP
3EF0
6318
630C
07FC
1B00
6300
E304
E384
E5F8
78F0
ENDCHAR

STARTCHAR char231
ENCODING 231
SWIDTH 38 0
DWIDTH 9 0
BBX 9 14 0 -4
BITMAP
3E00
6300
4100
C000
C000
C000
E080
F100
7E00
3C00
0800
1800
1C00
3800
ENDCHAR

STARTCHAR char232
ENCODING 232
SWIDTH 43 0
DWIDTH 10 0
BBX 9 15 0 0
BITMAP
3000
1000
0800
0800
0000
3E00
6300
C100
FF80
C000
C000
C080
6080
7F00
1E00
ENDCHAR

STARTCHAR char233
ENCODING 233
SWIDTH 43 0
DWIDTH 10 0
BBX 9 15 0 0
BITMAP
0600
0C00
0800
0800
0000
3E00
6300
C100
FF80
C000
C000
C080
6080
7F00
1E00
ENDCHAR

STARTCHAR char234
ENCODING 234
SWIDTH 43 0
DWIDTH 10 0
BBX 9 15 0 0
BITMAP
1C00
3C00
6200
4100
0000
3E00
6300
C100
FF80
C000
C000
C080
6080
7F00
1E00
ENDCHAR

STARTCHAR char235
ENCODING 235
SWIDTH 43 0
DWIDTH 10 0
BBX 8 14 1 0
BITMAP
C6
C6
00
00
7C
82
82
FF
80
80
81
C1
FE
3C
ENDCHAR

STARTCHAR char236
ENCODING 236
SWIDTH 21 0
DWIDTH 5 0
BBX 5 15 0 0
BITMAP
C0
60
20
00
10
30
30
30
30
30
30
30
30
30
F8
ENDCHAR

STARTCHAR char237
ENCODING 237
SWIDTH 21 0
DWIDTH 5 0
BBX 5 15 0 0
BITMAP
18
10
20
20
00
30
30
30
30
30
30
30
30
30
F8
ENDCHAR

STARTCHAR char238
ENCODING 238
SWIDTH 21 0
DWIDTH 5 0
BBX 7 15 -1 0
BITMAP
38
7C
44
82
00
18
18
18
18
18
18
18
18
18
7C
ENDCHAR

STARTCHAR char239
ENCODING 239
SWIDTH 21 0
DWIDTH 5 0
BBX 7 14 -1 0
BITMAP
C4
C4
00
00
18
18
18
18
18
18
18
18
18
7C
ENDCHAR

STARTCHAR char241
ENCODING 241
SWIDTH 8 0
DWIDTH 12 0
BBX 11 15 0 0
BITMAP
1C40
3F80
2700
0000
0000
6F80
FFC0
70C0
60C0
60C0
60C0
60C0
60C0
60C0
FBE0
ENDCHAR

STARTCHAR char242
ENCODING 242
SWIDTH 3 0
DWIDTH 11 0
BBX 10 15 0 0
BITMAP
3800
1800
0800
0400
0000
3F00
6180
E0C0
C0C0
C0C0
C0C0
C0C0
6080
7180
1F00
ENDCHAR

STARTCHAR char243
ENCODING 243
SWIDTH 3 0
DWIDTH 11 0
BBX 10 15 0 0
BITMAP
0600
0600
0400
0800
0000
3F00
6180
E0C0
C0C0
C0C0
C0C0
C0C0
6080
7180
1F00
ENDCHAR

STARTCHAR char244
ENCODING 244
SWIDTH 3 0
DWIDTH 11 0
BBX 10 15 0 0
BITMAP
0C00
1E00
3300
4100
0000
3F00
6180
E0C0
C0C0
C0C0
C0C0
C0C0
6080
7180
1F00
ENDCHAR

STARTCHAR char245
ENCODING 245
SWIDTH 3 0
DWIDTH 11 0
BBX 10 15 0 0
BITMAP
1C80
3F00
4600
0000
0000
3F00
6180
E0C0
C0C0
C0C0
C0C0
C0C0
6080
7180
1F00
ENDCHAR

STARTCHAR char246
ENCODING 246
SWIDTH 3 0
DWIDTH 11 0
BBX 9 14 1 0
BITMAP
6600
6600
0000
0000
7E00
C300
8380
8180
8180
8180
8180
C380
4300
3E00
ENDCHAR

STARTCHAR char247
ENCODING 247
SWIDTH 3 0
DWIDTH 11 0
BBX 10 7 0 2
BITMAP
0C00
0C00
0000
FFC0
0000
0C00
0C00
ENDCHAR

STARTCHAR char248
ENCODING 248
SWIDTH 3 0
DWIDTH 11 0
BBX 9 12 1 -1
BITMAP
0100
3D00
4300
C580
C580
C980
C980
D180
6100
6300
7E00
4000
ENDCHAR

STARTCHAR char249
ENCODING 249
SWIDTH 8 0
DWIDTH 12 0
BBX 11 15 0 0
BITMAP
1800
0800
0400
0400
0000
E380
6180
6180
6180
6180
6180
6180
6180
77C0
3D80
ENDCHAR

STARTCHAR char250
ENCODING 250
SWIDTH 8 0
DWIDTH 12 0
BBX 11 15 0 0
BITMAP
0200
0600
0400
0400
0000
E380
6180
6180
6180
6180
6180
6180
6180
77C0
3D80
ENDCHAR

STARTCHAR char251
ENCODING 251
SWIDTH 8 0
DWIDTH 12 0
BBX 11 15 0 0
BITMAP
0E00
1E00
3300
2100
0000
E380
6180
6180
6180
6180
6180
6180
6180
77C0
3D80
ENDCHAR

STARTCHAR char252
ENCODING 252
SWIDTH 8 0
DWIDTH 12 0
BBX 11 14 0 0
BITMAP
3300
3300
0000
0000
E380
6180
6180
6180
6180
6180
6180
6180
77C0
3D80
ENDCHAR

STARTCHAR char255
ENCODING 255
SWIDTH 43 0
DWIDTH 10 0
BBX 10 17 0 -3
BITMAP
6300
6300
0000
0000
F3C0
6080
6080
3100
3100
1200
1A00
1C00
0C00
0800
0800
F000
E000
ENDCHAR
ENDFONT
